<svg width="200" height="52" viewBox="0 0 200 52" fill="none" xmlns="http://www.w3.org/2000/svg">
<g clip-path="url(#clip0)">
<path d="M26.5467 0.153878C27.7331 -0.485711 29.1812 0.998034 28.5509 2.22347C28.1848 3.22238 26.7969 3.48801 26.0879 2.72658C25.3368 1.99583 25.5817 0.551475 26.5467 0.153878ZM13.7869 1.576C14.5075 1.26929 15.4198 1.95193 15.3463 2.76401C15.4228 3.64559 14.3802 4.29446 13.6456 3.87548C12.6724 3.48576 12.7837 1.85232 13.7869 1.576V1.576ZM39.9206 3.90024C38.7944 3.75955 38.6162 1.92886 39.7004 1.56024C40.5414 1.13619 41.3129 1.93139 41.4359 2.75557C41.2596 3.45931 40.6897 4.10368 39.9206 3.90024ZM16.6902 7.19104C17.895 6.40316 19.6142 7.57654 19.4289 9.02342C19.3663 10.4844 17.4895 11.3308 16.4306 10.3431C15.4067 9.56734 15.5619 7.78758 16.6902 7.19104ZM35.0825 8.02704C35.62 6.59479 37.7981 6.55145 38.4099 7.94572C39.0146 9.03074 38.2708 10.3744 37.1933 10.7432C35.7662 11.0187 34.4106 9.42355 35.0825 8.02704ZM25.0102 10.6619C24.9985 9.43087 26.083 8.51355 27.2146 8.4297C27.9652 8.58531 28.7833 8.91593 29.1053 9.69903C29.7053 10.7793 29.1725 12.2667 28.0882 12.7625C27.5924 13.0498 27.0061 12.942 26.4662 12.9085C25.6408 12.4895 24.9457 11.6679 25.0102 10.6619V10.6619ZM6.03436 12.4558C7.13494 11.7562 8.6198 13.0329 8.20314 14.269C7.97372 15.3383 6.58356 15.7733 5.78888 15.0907C4.94058 14.4511 5.07502 12.9133 6.03436 12.4558V12.4558ZM46.7824 12.4535C47.7161 11.7039 49.257 12.5638 49.1457 13.7828C49.2083 14.8942 47.8761 15.7325 46.9492 15.1602C45.9283 14.6857 45.8241 13.0619 46.7824 12.4535V12.4535ZM30.3465 14.6666C31.8875 14.0943 33.7177 14.7792 34.5959 16.1996C35.7545 17.936 35.1381 20.5805 33.3402 21.5769C31.4773 22.7553 28.7572 21.7564 28.0692 19.6055C27.2881 17.68 28.426 15.2702 30.3465 14.6666V14.6666ZM21.3056 14.856C23.0134 14.0225 25.3117 14.7218 26.1366 16.528C27.1074 18.2861 26.3568 20.7341 24.6213 21.6419C22.8836 22.6622 20.432 21.8886 19.5911 20.0011C18.6481 18.1758 19.4855 15.6965 21.3056 14.856V14.856ZM12.253 18.0559C12.3829 16.9182 13.4208 16.1779 14.4681 16.1014C15.5964 16.2421 16.4978 17.1481 16.6205 18.3288C16.5465 19.4977 15.6729 20.6401 14.4749 20.6331C13.1569 20.7504 12.0013 19.3947 12.253 18.0559V18.0559ZM38.9915 16.3487C40.3446 15.5344 42.2235 16.7199 42.1634 18.3271C42.2562 20.0301 40.1767 21.2302 38.8293 20.2313C37.4296 19.3995 37.5387 17.057 38.9915 16.3487V16.3487ZM17.6264 22.3507C19.209 21.9005 21.0185 22.6717 21.7947 24.1757C22.6449 25.6896 22.2974 27.7927 20.9769 28.903C19.2833 30.5317 16.1598 29.8777 15.2584 27.6551C14.2226 25.6176 15.4808 22.887 17.6264 22.3507V22.3507ZM34.7745 22.3422C36.3129 21.8872 38.1203 22.5004 38.9474 23.9495C40.0409 25.6069 39.5189 28.0788 37.8909 29.1473C36.1856 30.3879 33.5441 29.7365 32.6057 27.7966C31.4681 25.79 32.6128 22.9542 34.7745 22.3422V22.3422ZM7.44764 24.2331C8.81467 23.6985 10.33 25.2582 9.77618 26.6595C9.43789 27.9362 7.69775 28.4081 6.79883 27.4668C5.74697 26.583 6.13641 24.6164 7.44764 24.2331V24.2331ZM44.5012 26.2667C44.4617 25.0956 45.2904 24.0584 46.452 23.9937C47.3882 24.147 48.2985 24.9279 48.2245 25.9817C48.3102 27.3734 46.6882 28.3194 45.5413 27.6655C45.0038 27.383 44.7282 26.8129 44.5012 26.2667V26.2667ZM0.726028 24.9206C1.54847 24.5494 2.56578 25.2864 2.37799 26.2307C2.3339 27.3 0.807129 27.7111 0.246223 26.8177C-0.249366 26.1972 0.0472802 25.2405 0.726028 24.9206ZM52.5827 24.8992C53.1619 24.4729 54.091 24.7793 54.3204 25.4788C54.7096 26.2428 53.996 27.2895 53.1643 27.1604C51.9968 27.2704 51.6191 25.4307 52.5827 24.8992ZM22.0935 30.0319C24.2577 29.45 26.584 31.3159 26.5976 33.6199C26.7389 35.9481 24.4476 38.0126 22.2323 37.4748C20.5199 37.1898 19.1763 35.4843 19.2318 33.6953C19.2272 31.9842 20.4761 30.3938 22.0935 30.0319ZM30.6641 30.0271C32.8607 29.3923 35.2564 31.2917 35.2216 33.6489C35.3375 35.934 33.1179 37.929 30.9488 37.4757C28.9077 37.2027 27.4016 34.8841 27.9715 32.8362C28.2591 31.4715 29.3619 30.3617 30.6641 30.0271V30.0271ZM14.1393 31.4453C15.6593 31.1772 17.0843 32.9305 16.4679 34.4227C16.0183 36.0128 13.7801 36.4441 12.7905 35.1453C11.6298 33.8979 12.4963 31.6175 14.1393 31.4453ZM39.274 31.5154C40.6293 30.9284 42.2929 32.1406 42.1887 33.6615C42.2431 35.3358 40.1892 36.4903 38.8638 35.513C37.3626 34.6357 37.6359 32.0537 39.274 31.5154V31.5154ZM46.2993 38.801C45.7686 37.7782 46.7326 36.4225 47.831 36.6118C48.3777 36.6023 48.7601 37.0477 49.1101 37.4214C49.1819 38.0275 49.3025 38.7506 48.8159 39.2177C48.1551 40.0824 46.6583 39.8357 46.2993 38.801ZM6.02973 36.8966C7.05629 36.19 8.53353 37.2438 8.30275 38.4847C8.18001 39.5821 6.84292 40.2093 5.96224 39.5866C5.01705 39.0213 5.05189 37.4118 6.02973 36.8966V36.8966ZM26.3105 39.1938C27.6544 38.5807 29.3665 39.7904 29.2392 41.3208C29.3388 43.0119 27.2211 44.1831 25.9072 43.1676C24.4476 42.2955 24.6909 39.7302 26.3105 39.1938V39.1938ZM16.9172 41.4595C18.0619 40.8368 19.5979 41.9123 19.4937 43.2368C19.5285 44.3243 18.5019 45.2512 17.4639 45.0905C16.6042 45.0714 16.0436 44.2745 15.7679 43.5168C15.782 42.6909 16.1108 41.771 16.9172 41.4595V41.4595ZM35.9444 41.4787C37.1215 40.7265 38.7944 41.8068 38.6831 43.2233C38.7133 44.7036 36.8227 45.6519 35.7267 44.6794C34.6656 43.9172 34.7951 42.0848 35.9444 41.4787ZM39.2533 49.9363C38.7296 49.1172 39.3461 48.1303 40.1963 47.9435C40.8799 48.0873 41.6028 48.6188 41.4591 49.4382C41.3595 50.5472 39.7908 50.8874 39.2533 49.9363V49.9363ZM12.9876 49.2249C13.196 48.5758 13.7012 47.9306 14.4403 48.0994C15.5178 48.1785 15.8376 49.8575 14.8945 50.375C14.0465 50.9661 13.0627 50.1566 12.9876 49.2249V49.2249ZM25.6593 49.9698C25.8656 49.0094 27.0679 48.5423 27.8604 49.0524C28.384 49.2849 28.537 49.8907 28.6714 50.4056C28.5996 50.6738 28.5354 50.9422 28.4722 51.2104C28.1478 51.608 27.7309 52.0056 27.1909 51.9912C26.1875 52.1128 25.2823 50.94 25.6593 49.9698Z" fill="white"/>
</g>
<path d="M78.2103 28.4108C78.2103 29.7743 78.5764 30.8329 79.3088 31.5864C80.0411 32.322 80.9699 32.6898 82.0952 32.6898C83.3633 32.6898 84.3011 32.3489 84.9084 31.6671C85.5156 30.9674 85.8193 29.8999 85.8193 28.4646H89.597C89.597 30.0434 89.2755 31.407 88.6325 32.5552C88.0073 33.6856 87.141 34.5467 86.0336 35.1388C84.9262 35.7129 83.6759 36 82.2827 36H81.9076C80.3715 36 78.9962 35.686 77.7816 35.0581C76.567 34.4301 75.6114 33.5061 74.9148 32.2861C74.2182 31.0482 73.8699 29.559 73.8699 27.8187V25.1813C73.8699 23.4948 74.2182 22.0326 74.9148 20.7946C75.6114 19.5567 76.5581 18.6147 77.7548 17.9688C78.9694 17.3229 80.3179 17 81.8004 17H82.1755C83.6045 17 84.8726 17.2871 85.98 17.8612C87.1053 18.4174 87.9895 19.2696 88.6325 20.4178C89.2755 21.5482 89.597 22.9386 89.597 24.5892H85.6585C85.6585 23.1898 85.346 22.1313 84.7208 21.4136C84.1135 20.678 83.2294 20.3102 82.0684 20.3102C80.9431 20.3102 80.0143 20.687 79.282 21.4405C78.5675 22.1761 78.2103 23.2257 78.2103 24.5892V28.4108Z" fill="white"/>
<path d="M103.519 32.0977H96.2044L94.9184 35.7309H90.9264L97.5976 17.2691H102.527L109.199 35.7309H104.858L103.519 32.0977ZM97.3297 28.949H102.42C101.742 26.9216 100.92 24.5085 99.9554 21.7096H99.8214L97.3297 28.949Z" fill="white"/>
<path d="M126.602 35.5694C126.012 35.8026 125.244 35.9193 124.297 35.9193C123.386 35.9193 122.645 35.695 122.074 35.2465C121.502 34.7979 121.216 34.0444 121.216 32.9858C121.216 31.4429 121.011 30.2408 120.6 29.3796C120.207 28.5184 119.457 28.0878 118.35 28.0878H115.242V35.7309H111.169V17.2691H119.394C121.145 17.2691 122.609 17.628 123.788 18.3456C124.985 19.0633 125.583 20.2295 125.583 21.8442C125.583 22.4901 125.441 23.127 125.155 23.755C124.869 24.3829 124.467 24.9212 123.949 25.3697C123.449 25.8182 122.895 26.0963 122.288 26.204V26.3385C123.074 26.5897 123.762 27.128 124.351 27.9533C124.94 28.7786 125.235 29.882 125.235 31.2635C125.235 33.237 125.691 34.3673 126.602 34.6544V35.5694ZM119.26 24.8314C119.85 24.8314 120.35 24.6341 120.761 24.2394C121.189 23.8447 121.404 23.3692 121.404 22.813V22.6246C121.404 22.0326 121.198 21.5482 120.788 21.1714C120.395 20.7767 119.886 20.5793 119.26 20.5793H115.242V24.8314H119.26Z" fill="white"/>
<path d="M135.953 17.2691C137.471 17.2691 138.847 17.5921 140.079 18.238C141.329 18.8839 142.321 19.8258 143.053 21.0637C143.785 22.3017 144.152 23.7639 144.152 25.4504V27.5496C144.152 29.2361 143.785 30.6983 143.053 31.9363C142.321 33.1742 141.329 34.1161 140.079 34.762C138.847 35.4079 137.471 35.7309 135.953 35.7309H128.987V17.2691H135.953ZM133.14 32.4207H135.953C137.096 32.4207 138.025 32.0529 138.739 31.3173C139.454 30.5637 139.811 29.5052 139.811 28.1416V24.8584C139.811 23.4948 139.454 22.4452 138.739 21.7096C138.025 20.9561 137.096 20.5793 135.953 20.5793H133.14V32.4207Z" fill="white"/>
<path d="M158.071 32.0977H150.757L149.471 35.7309H145.479L152.15 17.2691H157.08L163.751 35.7309H159.411L158.071 32.0977ZM151.882 28.949H156.973C156.294 26.9216 155.473 24.5085 154.508 21.7096H154.374L151.882 28.949Z" fill="white"/>
<path d="M171.08 27.2266C170.884 26.9396 170.616 26.5179 170.277 25.9618C169.937 25.3876 169.714 25.0109 169.607 24.8314L169.5 24.9122V35.7309H165.722V17.2691H169.232L175.019 25.8272L175.823 27.0921C176.108 27.5944 176.332 27.9622 176.492 28.1955L176.573 28.1147V17.2691H180.35V35.7309H176.841L171.08 27.2266Z" fill="white"/>
<path d="M200 27.8187C200 29.5052 199.634 30.9674 198.902 32.2054C198.169 33.4433 197.178 34.3853 195.928 35.0312C194.695 35.6771 193.32 36 191.802 36C190.283 36 188.899 35.6771 187.649 35.0312C186.416 34.3853 185.434 33.4433 184.702 32.2054C183.969 30.9674 183.603 29.5052 183.603 27.8187V25.1813C183.603 23.4948 183.969 22.0326 184.702 20.7946C185.434 19.5567 186.416 18.6147 187.649 17.9688C188.899 17.3229 190.283 17 191.802 17C193.32 17 194.695 17.3229 195.928 17.9688C197.178 18.6147 198.169 19.5567 198.902 20.7946C199.634 22.0326 200 23.4948 200 25.1813V27.8187ZM195.66 24.5892C195.66 23.2257 195.302 22.1761 194.588 21.4405C193.874 20.687 192.945 20.3102 191.802 20.3102C190.658 20.3102 189.73 20.687 189.015 21.4405C188.301 22.1761 187.944 23.2257 187.944 24.5892V28.4108C187.944 29.7743 188.301 30.8329 189.015 31.5864C189.73 32.322 190.658 32.6898 191.802 32.6898C192.945 32.6898 193.874 32.322 194.588 31.5864C195.302 30.8329 195.66 29.7743 195.66 28.4108V24.5892Z" fill="white"/>
<defs>
<clipPath id="clip0">
<rect width="54.4305" height="52" fill="white"/>
</clipPath>
</defs>
</svg>
