<svg width="81" height="75" viewBox="0 0 81 75" fill="none" xmlns="http://www.w3.org/2000/svg">
<g clip-path="url(#clip0)">
<path d="M39.5056 0.221939C41.271 -0.700544 43.426 1.43947 42.488 3.20692C41.9433 4.64767 39.8778 5.03079 38.8228 3.93257C37.705 2.87859 38.0695 0.795397 39.5056 0.221939ZM20.5172 2.27308C21.5896 1.83071 22.9472 2.81528 22.8378 3.98655C22.9516 5.25806 21.4001 6.19393 20.307 5.58963C18.8587 5.02754 19.0243 2.67161 20.5172 2.27308ZM59.4077 5.62535C57.7318 5.42243 57.4665 2.782 59.0801 2.25035C60.3315 1.63874 61.4797 2.78566 61.6627 3.97437C61.4003 4.98939 60.5522 5.91877 59.4077 5.62535ZM24.8377 10.3717C26.6306 9.23533 29.189 10.9277 28.9132 13.0146C28.8201 15.1217 26.0272 16.3425 24.4513 14.918C22.9277 13.799 23.1586 11.2321 24.8377 10.3717ZM52.208 11.5775C53.0079 9.51171 56.2491 9.44921 57.1595 11.4602C58.0595 13.0251 56.9526 14.963 55.3492 15.4951C53.2254 15.8924 51.2081 13.5917 52.208 11.5775ZM37.219 15.3778C37.2015 13.6022 38.8155 12.2792 40.4995 12.1582C41.6165 12.3827 42.8339 12.8595 43.313 13.989C44.206 15.547 43.413 17.6923 41.7995 18.4074C41.0616 18.8218 40.1892 18.6663 39.3857 18.618C38.1573 18.0137 37.123 16.8287 37.219 15.3778ZM8.98034 17.965C10.6182 16.9561 12.8278 18.7974 12.2078 20.5803C11.8664 22.1225 9.79763 22.7499 8.61503 21.7654C7.35265 20.8429 7.55272 18.6249 8.98034 17.965ZM69.619 17.9618C71.0085 16.8806 73.3016 18.1209 73.136 19.879C73.2291 21.4821 71.2467 22.6911 69.8672 21.8656C68.3481 21.1814 68.193 18.8392 69.619 17.9618ZM45.1602 21.1538C47.4533 20.3283 50.1769 21.3161 51.4839 23.3648C53.208 25.8693 52.2906 29.6834 49.6152 31.1205C46.843 32.8202 42.795 31.3794 41.7712 28.2771C40.6088 25.4999 42.3021 22.0243 45.1602 21.1538ZM31.7061 21.4269C34.2475 20.2248 37.6677 21.2333 38.8953 23.8384C40.3399 26.3741 39.2229 29.905 36.6402 31.2142C34.0543 32.6858 30.4061 31.5702 29.1546 28.8477C27.7513 26.215 28.9975 22.6391 31.7061 21.4269ZM18.2346 26.0421C18.4278 24.4013 19.9724 23.3335 21.5309 23.2232C23.21 23.4261 24.5514 24.7329 24.734 26.4358C24.6239 28.1217 23.3238 29.7694 21.541 29.7593C19.5796 29.9285 17.86 27.9732 18.2346 26.0421ZM58.025 23.5799C60.0387 22.4054 62.8348 24.1152 62.7453 26.4334C62.8834 28.8896 59.7888 30.6205 57.7836 29.1797C55.7007 27.9801 55.8631 24.6014 58.025 23.5799ZM26.2309 32.2365C28.586 31.5872 31.2788 32.6996 32.4339 34.8689C33.6991 37.0523 33.1819 40.0856 31.2169 41.687C28.6966 44.0361 24.0484 43.0929 22.707 39.8871C21.1656 36.9484 23.0379 33.0101 26.2309 32.2365ZM51.7496 32.2244C54.039 31.5681 56.7286 32.4525 57.9594 34.5426C59.5867 36.933 58.8099 40.4983 56.3872 42.0393C53.8495 43.8287 49.9185 42.8891 48.5221 40.0913C46.8292 37.1972 48.5326 33.1071 51.7496 32.2244ZM11.0835 34.9516C13.1178 34.1805 15.3729 36.4301 14.5487 38.4512C14.0453 40.2926 11.4557 40.9732 10.118 39.6156C8.55266 38.3408 9.13222 35.5044 11.0835 34.9516ZM66.2243 37.8847C66.1655 36.1956 67.3988 34.6996 69.1273 34.6063C70.5205 34.8275 71.8752 35.9537 71.7651 37.4736C71.8926 39.4809 69.4788 40.8453 67.7722 39.9021C66.9723 39.4947 66.562 38.6724 66.2243 37.8847ZM1.08082 35.9431C2.30473 35.4078 3.81862 36.4707 3.53917 37.8327C3.47356 39.3749 1.20151 39.9679 0.366803 38.6793C-0.370702 37.7844 0.0707481 36.4046 1.08082 35.9431ZM78.2507 35.9123C79.1126 35.2974 80.4952 35.7394 80.8366 36.7483C81.4158 37.8502 80.3539 39.3599 79.1162 39.1736C77.3788 39.3323 76.8166 36.6789 78.2507 35.9123ZM32.8786 43.3153C36.0991 42.476 39.5611 45.1671 39.5813 48.4902C39.7915 51.8482 36.3818 54.8258 33.0851 54.0503C30.5369 53.6391 28.5374 51.1793 28.62 48.599C28.6131 46.131 30.4717 43.8372 32.8786 43.3153ZM45.6328 43.3084C48.9016 42.3928 52.4668 45.1322 52.415 48.532C52.5875 51.8279 49.2843 54.7053 46.0565 54.0515C43.019 53.6578 40.7777 50.3137 41.6258 47.3599C42.0539 45.3916 43.6949 43.7909 45.6328 43.3084ZM21.0416 45.3538C23.3036 44.9671 25.4242 47.4959 24.5068 49.6481C23.8378 51.9415 20.507 52.5637 19.0345 50.6903C17.3071 48.8912 18.5967 45.6022 21.0416 45.3538ZM58.4454 45.4549C60.4623 44.6083 62.9381 46.3567 62.783 48.5503C62.864 50.965 59.8074 52.6302 57.8351 51.2207C55.6011 49.9553 56.0077 46.2313 58.4454 45.4549ZM68.9001 55.963C68.1103 54.4878 69.5448 52.5324 71.1794 52.8055C71.9931 52.7917 72.5621 53.4342 73.0829 53.9732C73.1898 54.8473 73.3693 55.8904 72.6451 56.5641C71.6618 57.8112 69.4343 57.4553 68.9001 55.963ZM8.97346 53.2163C10.5011 52.1972 12.6995 53.7171 12.356 55.5068C12.1734 57.0896 10.1836 57.9943 8.87302 57.0961C7.46645 56.2808 7.51829 53.9594 8.97346 53.2163ZM39.1541 56.5296C41.1539 55.6452 43.7018 57.3899 43.5123 59.5973C43.6605 62.0365 40.5092 63.7256 38.5538 62.2609C36.3818 61.0032 36.7439 57.3031 39.1541 56.5296ZM25.1755 59.7974C26.8789 58.8993 29.1647 60.4504 29.0096 62.3607C29.0615 63.9293 27.5338 65.2662 25.9891 65.0344C24.7097 65.0068 23.8754 63.8575 23.4652 62.7645C23.4862 61.5734 23.9755 60.2467 25.1755 59.7974ZM53.4907 59.825C55.2423 58.7402 57.7318 60.2982 57.5662 62.3412C57.6111 64.4764 54.7976 65.8441 53.1666 64.4415C51.5876 63.3421 51.7803 60.6992 53.4907 59.825ZM58.4146 72.0235C57.6354 70.8421 58.5527 69.4188 59.818 69.1493C60.8353 69.3567 61.911 70.1233 61.6972 71.3051C61.5489 72.9046 59.2145 73.3952 58.4146 72.0235ZM19.3277 70.9975C19.6379 70.0612 20.3896 69.1306 21.4896 69.3741C23.093 69.4882 23.5688 71.9098 22.1655 72.6562C20.9035 73.5089 19.4395 72.3412 19.3277 70.9975ZM38.1849 72.0718C38.4919 70.6866 40.2812 70.0129 41.4605 70.7487C42.2397 71.0839 42.4674 71.9577 42.6674 72.7004C42.5605 73.0872 42.4649 73.4744 42.371 73.8611C41.8882 74.4346 41.2677 75.008 40.4642 74.9874C38.971 75.1627 37.624 73.4711 38.1849 72.0718Z" fill="#1C48AF"/>
</g>
<defs>
<clipPath id="clip0">
<rect width="81" height="75" fill="white"/>
</clipPath>
</defs>
</svg>
