<svg width="35" height="32" viewBox="0 0 35 32" fill="none" xmlns="http://www.w3.org/2000/svg">
<g clip-path="url(#clip0)">
<path d="M16.7215 0.094694C17.4688 -0.298899 18.381 0.614175 17.9839 1.36829C17.7534 1.98301 16.8791 2.14647 16.4325 1.6779C15.9594 1.2282 16.1137 0.339369 16.7215 0.094694ZM8.68412 0.969845C9.13806 0.781101 9.71269 1.20119 9.6664 1.70093C9.71458 2.24344 9.05783 2.64275 8.59515 2.38491C7.98212 2.14508 8.05223 1.13989 8.68412 0.969845ZM25.1457 2.40015C24.4363 2.31357 24.3241 1.18699 25.007 0.960149C25.5367 0.699196 26.0227 1.18855 26.1002 1.69573C25.9891 2.12881 25.6302 2.52534 25.1457 2.40015ZM10.5129 4.42526C11.2718 3.94041 12.3547 4.66249 12.238 5.55288C12.1986 6.45192 11.0164 6.97279 10.3494 6.365C9.70446 5.88759 9.80218 4.79236 10.5129 4.42526ZM22.0982 4.93972C22.4368 4.05833 23.8087 4.03166 24.1941 4.88967C24.575 5.55738 24.1065 6.38422 23.4278 6.61123C22.5289 6.78075 21.675 5.79911 22.0982 4.93972ZM15.7537 6.56119C15.7463 5.80361 16.4294 5.23911 17.1422 5.18751C17.615 5.28327 18.1303 5.48673 18.3331 5.96863C18.7111 6.63339 18.3755 7.54872 17.6925 7.85383C17.3802 8.03062 17.0109 7.9643 16.6708 7.9437C16.1509 7.68586 15.713 7.18023 15.7537 6.56119ZM3.80081 7.66508C4.49406 7.23461 5.42938 8.02023 5.16692 8.78093C5.02241 9.43894 4.14675 9.70664 3.64618 9.28655C3.11183 8.89296 3.19652 7.94664 3.80081 7.66508ZM29.4679 7.6637C30.0561 7.2024 31.0267 7.73158 30.9566 8.48171C30.9961 9.16569 30.1569 9.68153 29.573 9.32933C28.93 9.03738 28.8643 8.03807 29.4679 7.6637ZM19.115 9.0256C20.0857 8.67339 21.2385 9.09487 21.7917 9.96898C22.5215 11.0376 22.1332 12.6649 21.0007 13.2781C19.8273 14.0033 18.1139 13.3885 17.6805 12.0649C17.1885 10.88 17.9053 9.39703 19.115 9.0256ZM13.4202 9.14214C14.4959 8.62924 15.9436 9.05954 16.4632 10.1711C17.0747 11.253 16.6019 12.7595 15.5087 13.3181C14.4141 13.9459 12.8699 13.4699 12.3402 12.3084C11.7462 11.1851 12.2737 9.65937 13.4202 9.14214ZM7.71795 11.1113C7.79972 10.4112 8.45355 9.95565 9.11321 9.90855C9.82395 9.99513 10.3917 10.5527 10.469 11.2793C10.4224 11.9986 9.87212 12.7016 9.11749 12.6973C8.28726 12.7695 7.55938 11.9352 7.71795 11.1113ZM24.5605 10.0608C25.4128 9.55963 26.5963 10.2892 26.5585 11.2782C26.6169 12.3262 25.307 13.0647 24.4583 12.45C23.5766 11.9382 23.6454 10.4966 24.5605 10.0608ZM11.1026 13.7543C12.0995 13.4772 13.2393 13.9518 13.7282 14.8774C14.2638 15.809 14.0449 17.1032 13.2131 17.7865C12.1463 18.7887 10.1788 18.3863 9.61103 17.0185C8.95858 15.7646 9.75109 14.0843 11.1026 13.7543ZM21.9042 13.7491C22.8733 13.4691 24.0117 13.8464 24.5327 14.7382C25.2215 15.7581 24.8927 17.2793 23.8672 17.9368C22.793 18.7002 21.1291 18.2994 20.5381 17.1056C19.8215 15.8708 20.5425 14.1257 21.9042 13.7491ZM4.69103 14.9127C5.55212 14.5837 6.50663 15.5435 6.15778 16.4059C5.94469 17.1915 4.84858 17.4819 4.28235 16.9027C3.61978 16.3588 3.86509 15.1485 4.69103 14.9127ZM28.031 16.1641C28.0062 15.4434 28.5282 14.8052 29.2598 14.7653C29.8495 14.8597 30.423 15.3402 30.3763 15.9887C30.4303 16.8452 29.4086 17.4273 28.6862 17.0249C28.3477 16.8511 28.174 16.5002 28.031 16.1641ZM0.457091 15.3357C0.975148 15.1073 1.61595 15.5608 1.49766 16.142C1.46989 16.8 0.508177 17.053 0.154863 16.5032C-0.157309 16.1214 0.0295485 15.5326 0.457091 15.3357ZM33.1216 15.3226C33.4864 15.0602 34.0717 15.2488 34.2162 15.6793C34.4613 16.1494 34.0118 16.7936 33.4879 16.7141C32.7525 16.7818 32.5146 15.6497 33.1216 15.3226ZM13.9165 18.4812C15.2797 18.1231 16.745 19.2713 16.7536 20.6891C16.8426 22.1219 15.3993 23.3924 14.0039 23.0614C12.9253 22.886 12.0789 21.8365 12.1139 20.7356C12.111 19.6826 12.8977 18.7039 13.9165 18.4812ZM19.3151 18.4782C20.6987 18.0876 22.2078 19.2564 22.1858 20.707C22.2589 22.1132 20.8607 23.3409 19.4944 23.062C18.2087 22.894 17.26 21.4672 17.619 20.2069C17.8002 19.3671 18.4948 18.6841 19.3151 18.4782ZM8.90612 19.351C9.86355 19.1859 10.7611 20.2649 10.3729 21.1832C10.0897 22.1617 8.67983 22.4272 8.05652 21.6279C7.32538 20.8602 7.87121 19.4569 8.90612 19.351ZM24.7384 19.3941C25.5921 19.0329 26.6401 19.7788 26.5744 20.7148C26.6087 21.7451 25.3149 22.4556 24.4801 21.8542C23.5345 21.3143 23.7066 19.7253 24.7384 19.3941ZM29.1637 23.8775C28.8294 23.2481 29.4366 22.4138 30.1285 22.5304C30.4729 22.5245 30.7137 22.7986 30.9342 23.0285C30.9794 23.4015 31.0554 23.8466 30.7489 24.134C30.3326 24.6661 29.3898 24.5143 29.1637 23.8775ZM3.79789 22.7056C4.44452 22.2708 5.37503 22.9193 5.22966 23.6829C5.15235 24.3582 4.31012 24.7442 3.75538 24.361C3.16001 24.0131 3.18195 23.0227 3.79789 22.7056ZM16.5727 24.1193C17.4193 23.742 18.4977 24.4864 18.4175 25.4282C18.4802 26.4689 17.1463 27.1896 16.3187 26.5646C15.3993 26.028 15.5526 24.4493 16.5727 24.1193ZM10.6559 25.5136C11.3769 25.1304 12.3445 25.7922 12.2788 26.6072C12.3007 27.2765 11.6541 27.8469 11.0003 27.748C10.4587 27.7362 10.1056 27.2459 9.93195 26.7795C9.94086 26.2713 10.1479 25.7053 10.6559 25.5136ZM22.6411 25.5253C23.3826 25.0625 24.4363 25.7272 24.3662 26.5989C24.3853 27.5099 23.1943 28.0935 22.504 27.495C21.8356 27.0259 21.9172 25.8983 22.6411 25.5253ZM24.7254 30.73C24.3955 30.2259 24.7838 29.6187 25.3194 29.5037C25.75 29.5922 26.2053 29.9193 26.1148 30.4235C26.0521 31.1059 25.0639 31.3153 24.7254 30.73ZM8.18063 30.2923C8.31195 29.8928 8.63012 29.4957 9.09572 29.5996C9.77441 29.6483 9.97583 30.6815 9.38183 31C8.84766 31.3638 8.22795 30.8656 8.18063 30.2923ZM16.1625 30.7506C16.2925 30.1596 17.0498 29.8722 17.549 30.1861C17.8789 30.3291 17.9752 30.702 18.0599 31.0188C18.0146 31.1839 17.9742 31.3491 17.9344 31.5141C17.7301 31.7588 17.4674 32.0034 17.1273 31.9946C16.4953 32.0694 15.9251 31.3477 16.1625 30.7506Z" fill="white"/>
</g>
<defs>
<clipPath id="clip0">
<rect width="34.2857" height="32" fill="white"/>
</clipPath>
</defs>
</svg>
